<svg xmlns="http://www.w3.org/2000/svg" width="440" height="340" viewBox="0 0 440 340">
<style>
  @import url("https://fonts.googleapis.com/css2?family=Quicksand:wght@400;500;700&amp;family=Nunito:wght@400;700&amp;display=swap");
  text { font-family: Nunito, sans-serif; fill: #292F36; }
  .title { font-family: Quicksand, sans-serif; font-weight: 700; font-size: 18px; }
  .subtitle { font-family: Quicksand, sans-serif; font-weight: 500; font-size: 12px; fill: #6B7280; }
  .axis-label { font-size: 13px; font-weight: 700; }
  .value-label { font-size: 12px; font-weight: 700; }
  .source { font-size: 10px; fill: #9CA3AF; }
</style>
<rect width="440" height="340" fill="#F7FFF7" rx="8"/>
<text x="220.0" y="30" text-anchor="middle" class="title">UK Net Migration</text>
<text x="220.0" y="50" text-anchor="middle" class="subtitle">June estimates, 2021–2024</text>
<line x1="75" y1="285.0" x2="410" y2="285.0" stroke="#E5E7EB" stroke-width="1"/>
<text x="65" y="289.0" text-anchor="end" class="axis-label">0</text>
<line x1="75" y1="231.25" x2="410" y2="231.25" stroke="#E5E7EB" stroke-width="1"/>
<text x="65" y="235.25" text-anchor="end" class="axis-label">250k</text>
<line x1="75" y1="177.5" x2="410" y2="177.5" stroke="#E5E7EB" stroke-width="1"/>
<text x="65" y="181.5" text-anchor="end" class="axis-label">500k</text>
<line x1="75" y1="123.75" x2="410" y2="123.75" stroke="#E5E7EB" stroke-width="1"/>
<text x="65" y="127.75" text-anchor="end" class="axis-label">750k</text>
<line x1="75" y1="70.0" x2="410" y2="70.0" stroke="#E5E7EB" stroke-width="1"/>
<text x="65" y="74.0" text-anchor="end" class="axis-label">1000k</text>
<rect x="91.75" y="231.035" width="50.25" height="53.965" fill="#6f9449" rx="4"/>
<text x="116.875" y="223.035" text-anchor="middle" class="value-label" fill="#6f9449">251,000</text>
<text x="116.875" y="305" text-anchor="middle" class="axis-label">2021</text>
<rect x="175.5" y="138.58499999999998" width="50.25" height="146.41500000000002" fill="#6f9449" rx="4"/>
<text x="200.625" y="130.58499999999998" text-anchor="middle" class="value-label" fill="#6f9449">681,000</text>
<text x="200.625" y="305" text-anchor="middle" class="axis-label">2022</text>
<rect x="259.25" y="86.34" width="50.25" height="198.66" fill="#FF6B6B" rx="4"/>
<text x="284.375" y="78.34" text-anchor="middle" class="value-label" fill="#FF6B6B">924,000</text>
<text x="284.375" y="305" text-anchor="middle" class="axis-label">2023</text>
<rect x="343.0" y="145.465" width="50.25" height="139.535" fill="#6f9449" rx="4"/>
<text x="368.125" y="137.465" text-anchor="middle" class="value-label" fill="#6f9449">649,000</text>
<text x="368.125" y="305" text-anchor="middle" class="axis-label">2024</text>
<text x="220.0" y="330" text-anchor="middle" class="source">Source: ONS mid-year population estimates</text>
</svg>