<svg xmlns="http://www.w3.org/2000/svg" width="440" height="420" viewBox="0 0 440 420">
<style>
  @import url("https://fonts.googleapis.com/css2?family=Quicksand:wght@400;500;700&amp;family=Nunito:wght@400;700&amp;display=swap");
  text { font-family: Nunito, sans-serif; fill: #292F36; }
  .title { font-family: Quicksand, sans-serif; font-weight: 700; font-size: 18px; }
  .subtitle { font-family: Quicksand, sans-serif; font-weight: 500; font-size: 12px; fill: #6B7280; }
  .axis-label { font-size: 13px; font-weight: 700; }
  .value-label { font-size: 12px; font-weight: 700; }
  .source { font-size: 10px; fill: #9CA3AF; }
</style>
<rect width="440" height="420" fill="#F7FFF7" rx="8"/>
<text x="220.0" y="30" text-anchor="middle" class="title">What Makes Up the UK Population?</text>
<text x="220.0" y="50" text-anchor="middle" class="subtitle">Existing residents vs. net migration contribution</text>
<line x1="75" y1="345.0" x2="410" y2="345.0" stroke="#E5E7EB" stroke-width="1"/>
<text x="65" y="349.0" text-anchor="end" class="axis-label">0M</text>
<line x1="75" y1="253.33333333333334" x2="410" y2="253.33333333333334" stroke="#E5E7EB" stroke-width="1"/>
<text x="65" y="257.33333333333337" text-anchor="end" class="axis-label">25M</text>
<line x1="75" y1="161.66666666666669" x2="410" y2="161.66666666666669" stroke="#E5E7EB" stroke-width="1"/>
<text x="65" y="165.66666666666669" text-anchor="end" class="axis-label">50M</text>
<line x1="75" y1="70.0" x2="410" y2="70.0" stroke="#E5E7EB" stroke-width="1"/>
<text x="65" y="74.0" text-anchor="end" class="axis-label">75M</text>
<rect x="93.84375" y="100.33433333333332" width="46.06250000000001" height="244.66566666666668" fill="#6f9449" rx="0"/>
<rect x="93.84375" y="99.41399999999999" width="46.06250000000001" height="0.9203333333333333" fill="#FF6B6B" rx="4 4 0 0"/>
<text x="116.875" y="91.41399999999999" text-anchor="middle" class="value-label" font-size="11">67.0M</text>
<text x="116.875" y="365" text-anchor="middle" class="axis-label">2021</text>
<rect x="177.59375" y="99.49796666666666" width="46.06250000000001" height="245.50203333333334" fill="#6f9449" rx="0"/>
<rect x="177.59375" y="97.00096666666666" width="46.06250000000001" height="2.497" fill="#FF6B6B" rx="4 4 0 0"/>
<text x="200.625" y="89.00096666666666" text-anchor="middle" class="value-label" font-size="11">67.6M</text>
<text x="200.625" y="365" text-anchor="middle" class="axis-label">2022</text>
<rect x="261.34375" y="97.12526666666668" width="46.06250000000001" height="247.87473333333332" fill="#6f9449" rx="0"/>
<rect x="261.34375" y="93.73726666666667" width="46.06250000000001" height="3.388" fill="#FF6B6B" rx="4 4 0 0"/>
<text x="284.375" y="85.73726666666667" text-anchor="middle" class="value-label" font-size="11">68.5M</text>
<text x="284.375" y="365" text-anchor="middle" class="axis-label">2023</text>
<rect x="345.09375" y="93.34786666666668" width="46.06250000000001" height="251.65213333333332" fill="#6f9449" rx="0"/>
<rect x="345.09375" y="90.96820000000001" width="46.06250000000001" height="2.379666666666667" fill="#FF6B6B" rx="4 4 0 0"/>
<text x="368.125" y="82.96820000000001" text-anchor="middle" class="value-label" font-size="11">69.3M</text>
<text x="368.125" y="365" text-anchor="middle" class="axis-label">2024</text>
<rect x="110.0" y="385" width="12" height="12" fill="#6f9449" rx="2"/>
<text x="127.0" y="395" font-size="11">Existing residents</text>
<rect x="250.0" y="385" width="12" height="12" fill="#FF6B6B" rx="2"/>
<text x="267.0" y="395" font-size="11">Net migration</text>
<text x="220.0" y="410" text-anchor="middle" class="source">Source: ONS mid-year population estimates</text>
</svg>