<svg xmlns="http://www.w3.org/2000/svg" width="440" height="340" viewBox="0 0 440 340">
<style>
  @import url("https://fonts.googleapis.com/css2?family=Quicksand:wght@400;500;700&amp;family=Nunito:wght@400;700&amp;display=swap");
  text { font-family: Nunito, sans-serif; fill: #292F36; }
  .title { font-family: Quicksand, sans-serif; font-weight: 700; font-size: 18px; }
  .subtitle { font-family: Quicksand, sans-serif; font-weight: 500; font-size: 12px; fill: #6B7280; }
  .axis-label { font-size: 13px; font-weight: 700; }
  .value-label { font-size: 12px; font-weight: 700; }
  .source { font-size: 10px; fill: #9CA3AF; }
</style>
<rect width="440" height="340" fill="#F7FFF7" rx="8"/>
<text x="220.0" y="30" text-anchor="middle" class="title">UK Population Growth</text>
<text x="220.0" y="50" text-anchor="middle" class="subtitle">Mid-year estimates, 2021–2024</text>
<line x1="75" y1="285.0" x2="410" y2="285.0" stroke="#E5E7EB" stroke-width="1"/>
<text x="65" y="289.0" text-anchor="end" class="axis-label">66M</text>
<line x1="75" y1="231.25" x2="410" y2="231.25" stroke="#E5E7EB" stroke-width="1"/>
<text x="65" y="235.25" text-anchor="end" class="axis-label">67M</text>
<line x1="75" y1="177.5" x2="410" y2="177.5" stroke="#E5E7EB" stroke-width="1"/>
<text x="65" y="181.5" text-anchor="end" class="axis-label">68M</text>
<line x1="75" y1="123.75" x2="410" y2="123.75" stroke="#E5E7EB" stroke-width="1"/>
<text x="65" y="127.75" text-anchor="end" class="axis-label">69M</text>
<line x1="75" y1="70.0" x2="410" y2="70.0" stroke="#E5E7EB" stroke-width="1"/>
<text x="65" y="74.0" text-anchor="end" class="axis-label">70M</text>
<polygon points="75.0,285 75.0,232.4325 186.66666666666669,197.05962499999998 298.33333333333337,149.21675000000002 410.0,108.62475 410.0,285" fill="#6f9449" opacity="0.12"/>
<polyline points="75.0,232.4325 186.66666666666669,197.05962499999998 298.33333333333337,149.21675000000002 410.0,108.62475" fill="none" stroke="#6f9449" stroke-width="3" stroke-linecap="round" stroke-linejoin="round"/>
<circle cx="75.0" cy="232.4325" r="5" fill="#6f9449" stroke="#F7FFF7" stroke-width="2"/>
<text x="75.0" y="218.4325" text-anchor="middle" class="value-label">67.0M</text>
<text x="75.0" y="305" text-anchor="middle" class="axis-label">2021</text>
<circle cx="186.66666666666669" cy="197.05962499999998" r="5" fill="#6f9449" stroke="#F7FFF7" stroke-width="2"/>
<text x="186.66666666666669" y="183.05962499999998" text-anchor="middle" class="value-label">67.6M</text>
<text x="186.66666666666669" y="305" text-anchor="middle" class="axis-label">2022</text>
<circle cx="298.33333333333337" cy="149.21675000000002" r="5" fill="#6f9449" stroke="#F7FFF7" stroke-width="2"/>
<text x="298.33333333333337" y="135.21675000000002" text-anchor="middle" class="value-label">68.5M</text>
<text x="298.33333333333337" y="305" text-anchor="middle" class="axis-label">2023</text>
<circle cx="410.0" cy="108.62475" r="5" fill="#6f9449" stroke="#F7FFF7" stroke-width="2"/>
<text x="410.0" y="94.62475" text-anchor="middle" class="value-label">69.3M</text>
<text x="410.0" y="305" text-anchor="middle" class="axis-label">2024</text>
<text x="220.0" y="330" text-anchor="middle" class="source">Source: ONS mid-year population estimates</text>
</svg>